<svg xmlns="http://www.w3.org/2000/svg" data-name="Layer 1" viewBox="0 0 278.02 276.51"><path d="M278 97.73c0-5.71-2.77-9.55-7.45-12.66-41.15-27.32-82.23-54.72-123.26-82.19-5.85-3.91-11.12-3.8-16.94.09C89.56 30.29 48.53 57.52 7.62 84.65 2.52 88.03 0 92.23 0 98.37v79.74c0 6.17 2.48 10.34 7.59 13.73 40.97 27.11 81.85 54.34 122.63 81.67 5.83 3.89 11.15 4.06 17 .14 41.05-27.46 82.15-54.86 123.29-82.19 4.86-3.23 7.51-7.31 7.51-13.09L278 97.73ZM151.02 33.85l93.06 62.22-39.76 26.47c-1.2.6-2.62.6-3.83 0-15.95-10.5-31.82-21.11-47.63-31.82a4.824 4.824 0 0 1-1.84-3.52V33.85Zm-24 .29v51.7a7.521 7.521 0 0 1-2.8 5.34c-15.28 10.41-30.65 20.7-46.11 30.86-1.17.76-3.55 1.14-4.57.48-13.11-8.53-26.08-17.28-39.78-26.44 31.26-20.82 93.26-61.94 93.26-61.94Zm-103 84.35 29.62 19.77-29.62 19.84v-39.61Zm103 124.2s-62-41.42-93.2-62.19l38.88-26.12c2.07-1.48 3.5-1.38 5.5 0 15.32 10.36 30.74 20.57 46.06 30.93 1.21.81 2.76 2.37 2.76 3.59v53.79Zm14.95-78.46a6.181 6.181 0 0 1-6.26-.11l-38.84-25.86s17.1-11.47 25.35-17c4.7-3.15 9.35-6.35 14.17-9.35 1.47-.8 3.22-.87 4.74-.17 5.77 3.83 39.84 26.49 39.84 26.49l-39 26Zm9.05 78.24v-51.34c-.03-2.88.45-4.61 2.86-6.19 15.2-10 30.33-20.11 45.39-30.34 2.33-1.58 3.92-1.62 6.22-.01l38.53 25.88-93 62Zm102-84.42-29.59-19.75 29.59-19.87v39.62Z" style="fill:#fff"/></svg>