<svg width="171" height="171" viewBox="0 0 171 171" fill="none" xmlns="http://www.w3.org/2000/svg">
<path d="M57.3677 171C73.2012 171 86.0516 158.15 86.0516 142.316V113.632H57.3677C41.5342 113.632 28.6839 126.483 28.6839 142.316C28.6839 158.15 41.5342 171 57.3677 171Z" fill="#0ACF83"/>
<path d="M28.6839 85.5C28.6839 69.971 41.5342 57.3677 57.3677 57.3677H86.0516V113.632H57.3677C41.5342 113.632 28.6839 101.029 28.6839 85.5Z" fill="#A259FF"/>
<path d="M28.6839 28.6839C28.6839 12.8504 41.5343 0 57.3678 0H86.0517V57.3677H57.3678C41.5343 57.3677 28.6839 44.5174 28.6839 28.6839Z" fill="#F24E1E"/>
<path d="M86.0516 0H114.184C129.713 0 142.316 12.8504 142.316 28.6839C142.316 44.5174 129.713 57.3677 114.184 57.3677H86.0516V0Z" fill="#FF7262"/>
<path d="M142.316 85.5C142.316 101.029 129.713 113.632 114.184 113.632C98.6549 113.632 86.0516 101.029 86.0516 85.5C86.0516 69.971 98.6549 57.3677 114.184 57.3677C129.713 57.3677 142.316 69.971 142.316 85.5Z" fill="#1ABCFE"/>
</svg>
